<svg width="64" height="64" viewBox="0 0 100 100" fill="none" xmlns="http://www.w3.org/2000/svg">
  <defs>
    <linearGradient id="waterGradient" x1="0" y1="0" x2="1" y2="0">
      <stop offset="0%" stop-color="#7DD3FC"/>
      <stop offset="60%" stop-color="#22D3EE"/>
      <stop offset="100%" stop-color="#14B8A6"/>
    </linearGradient>
    <linearGradient id="sunGradient" x1="0" y1="0" x2="0" y2="1">
      <stop offset="0%" stop-color="#FFF7E6"/>
      <stop offset="60%" stop-color="#FFE4C4"/>
      <stop offset="100%" stop-color="#FFD8A8"/>
    </linearGradient>
    <radialGradient id="sunGlow" cx="50%" cy="56%" r="60%">
      <stop offset="0%" stop-color="#FFEFD6" stop-opacity="0.6"/>
      <stop offset="100%" stop-color="#FFEFD6" stop-opacity="0"/>
    </radialGradient>
  </defs>

  <circle cx="50" cy="50" r="48" stroke="#38BDF8" stroke-width="2" opacity="0.25"/>
  <circle cx="50" cy="56" r="16" fill="url(#sunGlow)" opacity="0.35"/>
  <path d="M 36 56 A 14 14 0 0 1 64 56 L 64 56 L 36 56 Z" fill="url(#sunGradient)"/>
  <path d="M 50 54 C 52 50 52 46 50 42 C 48 46 48 50 50 54" stroke="url(#waterGradient)" stroke-width="2.5" stroke-linecap="round" fill="none" opacity="0.85"/>
  <path d="M 22 60 Q 50 58 78 60" stroke="url(#waterGradient)" stroke-width="2" stroke-linecap="round" fill="none" opacity="0.9"/>
  <path d="M 18 64 Q 50 62 82 64" stroke="url(#waterGradient)" stroke-width="1.8" stroke-linecap="round" fill="none" opacity="0.8"/>
  <path d="M 14 68 Q 50 66 86 68" stroke="url(#waterGradient)" stroke-width="1.5" stroke-linecap="round" fill="none" opacity="0.7"/>
  <path d="M 18 72 Q 50 71 82 72" stroke="url(#waterGradient)" stroke-width="1.2" stroke-linecap="round" fill="none" opacity="0.6"/>

  <path d="M 26 57 C 24 55 22 55 21 57 C 22 59 24 60 26 58 Z" fill="#A7F3D0" opacity="0.9"/>
  <path d="M 74 57 C 76 55 78 55 79 57 C 78 59 76 60 74 58 Z" fill="#A7F3D0" opacity="0.9"/>
  <line x1="24" y1="58" x2="22" y2="60" stroke="#34D399" stroke-width="1.2" stroke-linecap="round" opacity="0.8"/>
  <line x1="76" y1="58" x2="78" y2="60" stroke="#34D399" stroke-width="1.2" stroke-linecap="round" opacity="0.8"/>
</svg>
